# xmcd
#
# Track frame offsets: 
#        150
#        16966
#        34851
#        50765
#        69799
#        84431
#        103736
#        115179
#        131688
#        146663
#
# Disc length: 2157 seconds
#
# Revision: 0
# Processed by: cddbd v1.5.2PL0 Copyright (c) Steve Scherf et al.
# Submitted via: ExactAudioCopyFreeDBPlugin 1.0
#
DISCID=85086b0a
DTITLE=Dr Albert Flipout's One Can Band - North of Africa
DYEAR=2013
DGENRE=Blues
TTITLE0=Bankrupt
TTITLE1=This Ball This Chain
TTITLE2=Hold on Babe
TTITLE3=I Should Have Gotten Involved
TTITLE4=I'm so Sad, I'm Sorry
TTITLE5=Time to Pack my Things and Go
TTITLE6=My Baby's Gone and Left me
TTITLE7=Million in a Bag
TTITLE8=Me and her Dog
TTITLE9=Hangover
EXTD=
EXTT0=
EXTT1=
EXTT2=
EXTT3=
EXTT4=
EXTT5=
EXTT6=
EXTT7=
EXTT8=
EXTT9=
PLAYORDER=
